<svg xmlns="http://www.w3.org/2000/svg" width="24.152" height="16.309" viewBox="0 0 24.152 16.309">
  <path id="eye.slash" d="M19.935,16.441a.7.7,0,1,0,.993-.993L6.021.551a.7.7,0,0,0-1,.984ZM13.009,1.052a13.182,13.182,0,0,0-4.219.694L10.214,3.17a10.322,10.322,0,0,1,2.795-.4c5.59,0,10.028,4.86,10.028,5.889,0,.694-1.406,2.479-3.647,3.885l1.318,1.327c2.76-1.811,4.368-4.175,4.368-5.212C25.076,6.861,20.225,1.052,13.009,1.052Zm0,15.231a13.518,13.518,0,0,0,4.447-.747l-1.424-1.424a10.564,10.564,0,0,1-3.023.448c-5.607,0-10.046-4.667-10.046-5.9,0-.589,1.485-2.479,3.867-3.955L5.485,3.363C2.62,5.191.924,7.617.924,8.663.924,10.465,5.881,16.283,13.009,16.283Zm4.368-5.941a4.132,4.132,0,0,0,.351-1.679,4.691,4.691,0,0,0-4.72-4.711,4.444,4.444,0,0,0-1.687.334Zm-4.368,3.041a4.336,4.336,0,0,0,1.872-.431L8.7,6.773a4.272,4.272,0,0,0-.431,1.9A4.745,4.745,0,0,0,13.009,13.383Z" transform="translate(-0.924 -0.343)" fill="#4a4a4a"/>
</svg>
