<svg xmlns="http://www.w3.org/2000/svg" xmlns:xlink="http://www.w3.org/1999/xlink" width="257.999" height="161.989" viewBox="0 0 257.999 161.989">
  <defs>
    <linearGradient id="linear-gradient" x1="0.5" x2="0.5" y2="1" gradientUnits="objectBoundingBox">
      <stop offset="0" stop-color="#47337a"/>
      <stop offset="1" stop-color="#241a3d"/>
    </linearGradient>
  </defs>
  <g id="Ethereal_Artefacts_Logo" data-name="Ethereal Artefacts_Logo" transform="translate(0 0.01)">
    <g id="rune-svgrepo-com" transform="translate(55.646 -0.01)">
      <g id="Group_28" data-name="Group 28">
        <g id="Group_27" data-name="Group 27">
          <path id="Path_18" data-name="Path 18" d="M167.318,92.859c-.961-2.023-3.009-5.469-3.246-5.843L164,86.9l-.062-.087A53.09,53.09,0,0,0,152,73.593a81.37,81.37,0,0,0-8.378-5.731,66.551,66.551,0,0,0-7.741-3.833h-.025c-.287-.137-.574-.25-.849-.362h-.037c-.125-.062-.262-.112-.4-.175-.237-.1-.487-.187-.724-.275-.187-.075-.375-.137-.562-.212h-.037c-.212-.087-.412-.162-.624-.237-.237-.087-.462-.162-.7-.237l-.137-.05c-.137-.05-.275-.087-.4-.137-.362-.125-.737-.237-1.111-.35l-.175-.05c-.412-.125-.837-.237-1.249-.362l-.275-.075-.137-.037c-.3-.075-.587-.15-.874-.225-.137-.037-.275-.062-.412-.1h-.075c-.275-.087-.537-.15-.812-.212l-.512-.112c-.262-.062-.524-.112-.787-.162l-.1-.025c-.137-.025-.287-.062-.425-.087l-.824-.15c-.275-.05-.524-.087-.787-.137-.3-.05-.587-.087-.874-.137h0s-.1-.012-.15-.025h0c-1.124-.15-2.3-.275-3.334-.362h-.05a53.358,53.358,0,0,0-7.342.025,41.8,41.8,0,0,1,.749-6.592c.837-.037,1.686-.05,2.51-.05h.649a59.994,59.994,0,0,1,18.554,2.934l6.73,2.185-1.111-6.992A54.137,54.137,0,0,0,117.176,15.3l-2.522-1.8-2.522,1.8A54.359,54.359,0,0,0,95.238,35.1a58.753,58.753,0,0,0-5.881,26.445,65.24,65.24,0,0,0,1.448,13.747,55.719,55.719,0,0,0,2.659,8.715l.025.05c.362.862.737,1.711,1.124,2.535a54.965,54.965,0,0,0,4.045,7.067,42.3,42.3,0,0,1-6.13,2.659,60.132,60.132,0,0,1-3.209-5.743l-.025-.037a60.269,60.269,0,0,1-5.094-14.5l-1.473-6.9-5.494,4.432a54.176,54.176,0,0,0-20.214,37.07l-.3,3.071L59.529,115a53.3,53.3,0,0,0,12.411,3.9,53.985,53.985,0,0,0,9.926.924c1.286,0,3.571-.125,3.833-.137h.075c.112-.012,1.024-.087,1.436-.137l.4-.037c.387-.037.774-.087,1.149-.137l.35-.05c.986-.137,1.985-.3,2.959-.5l.387-.075c.362-.075.724-.15,1.074-.225L94,118.4l1.086-.262.125-.025a2,2,0,0,1,.262-.062c.462-.125.924-.25,1.373-.375.125-.037.25-.075.387-.112l.175-.05c.287-.087.574-.175.849-.262.225-.075.449-.137.687-.225s.462-.15.7-.237l.087-.025c.212-.075.425-.15.649-.225.15-.05.3-.112.437-.162l.15-.062a65.8,65.8,0,0,0,10-4.707,59.8,59.8,0,0,0,18.042-15.607,54.424,54.424,0,0,0,4.183-6.468l.025-.037c.35-.662.7-1.336,1.024-2.01a39.927,39.927,0,0,1,5.294,3.945,59.8,59.8,0,0,1-13.3,17.38L121,113.548l6.592,2.535a55.443,55.443,0,0,0,19.8,3.771,53.985,53.985,0,0,0,9.926-.924h0a53.932,53.932,0,0,0,12.411-3.908l2.809-1.286-.287-3.071a53.436,53.436,0,0,0-4.982-17.83Zm-11.537,17.567h0a45.6,45.6,0,0,1-8.353.774,44.608,44.608,0,0,1-10.126-1.174c.212-.237.424-.474.624-.712a68.836,68.836,0,0,0,9.839-14.883c.35-.687.687-1.4,1.011-2.11l1.236-2.684L147.965,87.5A48.935,48.935,0,0,0,137.1,79.1c-.974-.562-1.985-1.1-2.984-1.611l-4.308-2.148-1.686,4.507a45.294,45.294,0,0,1-2.51,5.556,46.352,46.352,0,0,1-3.483,5.406,51.364,51.364,0,0,1-15.47,13.335A55.955,55.955,0,0,1,98,108.229l-.162.062c-.112.037-.237.087-.35.125-.175.062-.362.125-.537.187l-.087.025c-.2.075-.412.137-.612.2s-.387.125-.587.187c-.237.075-.487.15-.724.225l-.2.062a2.331,2.331,0,0,0-.275.087c-.387.112-.774.212-1.174.325l-.337.087c-.3.075-.612.15-.911.225-.125.025-.262.062-.387.087-.3.075-.612.137-.911.2l-.325.062c-.824.162-1.661.3-2.485.412l-.3.037c-.325.037-.649.087-.961.112l-.337.037c-.325.037-1.011.087-1.174.1-.674.037-2.435.125-3.3.125a45.582,45.582,0,0,1-15.807-2.834A45.419,45.419,0,0,1,77.633,85.03c.112.337.225.662.337,1a68.245,68.245,0,0,0,3.558,8.415,70.124,70.124,0,0,0,5.606,9.464l1.711,2.422,2.884-.724a49.554,49.554,0,0,0,12.735-5.244c.986-.574,1.96-1.174,2.909-1.8l4.008-2.647L108.336,92.2a45.8,45.8,0,0,1-5.906-9.3c-.325-.674-.637-1.386-.936-2.1a47.241,47.241,0,0,1-2.235-7.329A55.947,55.947,0,0,1,98.01,61.582a50.126,50.126,0,0,1,4.969-22.574,45.726,45.726,0,0,1,11.649-14.671,46.061,46.061,0,0,1,5.506,5.419,45.208,45.208,0,0,1,8.89,16.169c-.337-.075-.662-.137-1-.2a68.47,68.47,0,0,0-13.06-1.249h-.649c-2.11,0-4.245.1-6.38.3l-2.947.275-.824,2.847a49.28,49.28,0,0,0-1.823,13.7c0,1.086.037,2.2.1,3.321l.275,4.807,4.757-.787a44.7,44.7,0,0,1,7.416-.612c.961,0,1.948.037,2.922.087.874.062,1.935.187,2.9.312.25.037.5.075.737.112l.662.112c.225.037.462.075.687.125l.325.062.112.025c.225.05.449.087.674.137.137.025.287.062.425.1.225.05.462.1.687.162h.075a1.725,1.725,0,0,0,.337.1c.25.062.5.125.737.187l.35.087c.362.1.712.2,1.074.312l.137.037c.312.1.624.2.949.3.1.037.2.062.3.1l.162.05c.2.062.4.137.6.2.175.062.362.125.549.2.162.062.325.112.487.175.212.075.425.162.624.237l.362.137c.237.087.474.187.724.287h.05a63.682,63.682,0,0,1,6.73,3.346,73,73,0,0,1,7.391,5.069,44.345,44.345,0,0,1,9.989,11.1v.025c.624,1.024,2.173,3.671,2.822,5.032a45.541,45.541,0,0,1,3.758,11.786,45.483,45.483,0,0,1-7.454,2.06Z" transform="translate(-41.671 3.368)" fill="url(#linear-gradient)"/>
          <path id="Path_19" data-name="Path 19" d="M186.945,96.816C183.336,86.353,175.4,71.72,158,60.4c-1.136-20.664-9.826-34.835-17.068-43.175A63.21,63.21,0,0,0,122.943,2.6L117.662-.01,112.38,2.6A64.1,64.1,0,0,0,94.389,17.22c-7.242,8.34-15.932,22.5-17.068,43.175C59.928,71.708,51.987,86.353,48.379,96.816A62.711,62.711,0,0,0,44.721,119.7l.387,5.881L50,128.854a62.881,62.881,0,0,0,21.663,8.278,68.471,68.471,0,0,0,13.06,1.249,72,72,0,0,0,32.937-8.1,72.2,72.2,0,0,0,32.937,8.1,68.471,68.471,0,0,0,13.06-1.249,63.016,63.016,0,0,0,21.65-8.278l4.894-3.271.375-5.868a64.077,64.077,0,0,0-3.658-22.9Zm-4.994,22.324-.1,1.6-1.336.886a55.82,55.82,0,0,1-18.491,6.979,60.3,60.3,0,0,1-11.412,1.086,63.945,63.945,0,0,1-30.865-8.141l-2.073-1.124L115.6,121.55a64.071,64.071,0,0,1-30.865,8.128,60.306,60.306,0,0,1-11.412-1.086,55.28,55.28,0,0,1-18.491-6.979l-1.336-.886-.1-1.6a55.75,55.75,0,0,1,3.209-19.5c3.284-9.5,10.675-22.961,27.244-33.1l2.01-1.224.062-2.36c.512-19.365,8.465-32.475,15.045-40.041a55.549,55.549,0,0,1,15.282-12.523l1.436-.712,1.436.712A55.815,55.815,0,0,1,134.405,22.9c6.58,7.579,14.533,20.676,15.045,40.054l.062,2.36,2.01,1.224c16.568,10.138,23.96,23.6,27.244,33.1a55.75,55.75,0,0,1,3.209,19.5h0Z" transform="translate(-44.667 0.01)" fill="url(#linear-gradient)"/>
        </g>
      </g>
    </g>
    <g id="Group_27-2" data-name="Group 27" transform="translate(0.5 148.32)">
      <path id="Path_18-2" data-name="Path 18" d="M13.685,120.735H.5V118.8H13.685Zm-.012,11.2H.5v-7.454H11.725v1.935H2.435V130H13.66v1.935Z" transform="translate(-0.5 -118.788)" fill="#47337a" stroke="#231f20" stroke-width="1"/>
      <path id="Path_19-2" data-name="Path 19" d="M18.139,120.735H12.52V118.8h7.554v13.147H18.139v-11.2Zm7.554,0H22.022V118.8h3.671Z" transform="translate(2.488 -118.788)" fill="#47337a" stroke="#231f20" stroke-width="1"/>
      <path id="Path_20" data-name="Path 20" d="M26.485,126.429v5.519H24.55V118.8h1.935v5.681H32.2v1.935H26.485ZM37.71,118.8v13.147H35.775V118.8Z" transform="translate(5.478 -118.788)" fill="#47337a" stroke="#231f20" stroke-width="1"/>
      <path id="Path_21" data-name="Path 21" d="M49.745,120.735H36.56V118.8H49.745Zm-.012,11.2H36.572v-7.454H47.8v1.935H38.508V130H49.732Z" transform="translate(8.463 -118.788)" fill="#47337a" stroke="#231f20" stroke-width="1"/>
      <path id="Path_22" data-name="Path 22" d="M48.59,124.481h9.864c1.036,0,1.361-.837,1.361-2.048,0-.662-.087-1.7-1.361-1.7H48.59V118.8h9.864a3.306,3.306,0,0,1,3.309,3.309v1.011a3.306,3.306,0,0,1-3.309,3.309H57.03l4.732,5.519H59.215l-4.732-5.519H50.538v5.519H48.6v-7.454Z" transform="translate(11.453 -118.788)" fill="#47337a" stroke="#231f20" stroke-width="1"/>
      <path id="Path_23" data-name="Path 23" d="M73.635,120.735H60.45V118.8H73.635Zm-.012,11.2H60.462v-7.454H71.687v1.935H62.4V130H73.622Z" transform="translate(14.401 -118.788)" fill="#47337a" stroke="#231f20" stroke-width="1"/>
      <path id="Path_24" data-name="Path 24" d="M74.44,131.947H72.33l3.2-7.454h2.11l-.837,1.935h4.233L77.786,118.8H79.9l5.619,13.147H83.4l-1.536-3.583H75.976l-1.536,3.583Z" transform="translate(17.354 -118.788)" fill="#47337a" stroke="#231f20" stroke-width="1"/>
      <path id="Path_25" data-name="Path 25" d="M97.347,130.02v1.923H84.2V118.82h1.96v11.2Z" transform="translate(20.305 -118.783)" fill="#47337a" stroke="#231f20" stroke-width="1"/>
      <path id="Path_26" data-name="Path 26" d="M105.7,131.947h-2.11l3.2-7.454h2.11l-.837,1.935h4.233l-3.246-7.629h2.11l5.606,13.147h-2.11l-1.536-3.583h-5.893l-1.536,3.583Z" transform="translate(25.125 -118.788)" fill="#47337a" stroke="#231f20" stroke-width="1"/>
      <path id="Path_27" data-name="Path 27" d="M115.46,124.481h9.864c1.036,0,1.361-.837,1.361-2.048,0-.662-.087-1.7-1.361-1.7H115.46V118.8h9.864a3.306,3.306,0,0,1,3.309,3.309v1.011a3.306,3.306,0,0,1-3.309,3.309H123.9l4.732,5.519h-2.547l-4.732-5.519h-3.945v5.519h-1.935v-7.454Z" transform="translate(28.075 -118.788)" fill="#47337a" stroke="#231f20" stroke-width="1"/>
      <path id="Path_28" data-name="Path 28" d="M132.939,120.735H127.32V118.8h7.554v13.147h-1.935v-11.2Zm7.554,0h-3.671V118.8h3.671Z" transform="translate(31.023 -118.788)" fill="#47337a" stroke="#231f20" stroke-width="1"/>
      <path id="Path_29" data-name="Path 29" d="M152.525,120.735H139.34V118.8h13.185Zm-.012,11.2h-13.16v-7.454h11.225v1.935h-9.289V130h11.225v1.935Z" transform="translate(34.011 -118.788)" fill="#47337a" stroke="#231f20" stroke-width="1"/>
      <path id="Path_30" data-name="Path 30" d="M164.555,118.8v1.935H151.37V118.8Zm-11.237,7.629v5.519h-1.935v-7.454h11.225v1.935Z" transform="translate(37.001 -118.788)" fill="#47337a" stroke="#231f20" stroke-width="1"/>
      <path id="Path_31" data-name="Path 31" d="M162.33,131.947h-2.11l3.2-7.454h2.11l-.837,1.935h4.233l-3.246-7.629h2.11l5.606,13.147h-2.11l-1.536-3.583h-5.893l-1.536,3.583Z" transform="translate(39.201 -118.788)" fill="#47337a" stroke="#231f20" stroke-width="1"/>
      <path id="Path_32" data-name="Path 32" d="M184.647,122.109h-1.923a1.356,1.356,0,0,0-1.361-1.361h-6.53a1.362,1.362,0,0,0-1.386,1.361h-1.935a3.293,3.293,0,0,1,3.321-3.309h6.53a3.277,3.277,0,0,1,3.284,3.271Zm-9.839,9.839a3.306,3.306,0,0,1-3.309-3.309v-4.158h1.935v4.158a1.378,1.378,0,0,0,1.361,1.386h6.555a1.356,1.356,0,0,0,1.361-1.361h1.923a3.272,3.272,0,0,1-3.284,3.284H174.8Z" transform="translate(42.005 -118.788)" fill="#47337a" stroke="#231f20" stroke-width="1"/>
      <path id="Path_33" data-name="Path 33" d="M188.969,120.735H183.35V118.8H190.9v13.147h-1.935v-11.2Zm7.554,0h-3.671V118.8h3.671Z" transform="translate(44.95 -118.788)" fill="#47337a" stroke="#231f20" stroke-width="1"/>
      <path id="Path_34" data-name="Path 34" d="M208.38,118.8v1.935h-9.864a1.372,1.372,0,0,0-1.361,1.361H195.22a3.331,3.331,0,0,1,3.309-3.309h9.864Zm-1.935,8.827a1.24,1.24,0,0,0-1.361-1.2h-6.555a3.341,3.341,0,0,1-3.309-3.134h1.96a1.383,1.383,0,0,0,1.348,1.2h6.555a3.184,3.184,0,0,1,3.309,3.134v2.385c-1,1.011-1.748,1.935-3.309,1.935H195.22v-1.935h9.864a1.381,1.381,0,0,0,1.361-1.361v-1.011Z" transform="translate(47.901 -118.79)" fill="#47337a" stroke="#231f20" stroke-width="1"/>
    </g>
  </g>
</svg>
